<?xml version="1.0" encoding="UTF-8" standalone="no"?>
<!-- Created with Inkscape (http://www.inkscape.org/) -->

<svg
   xmlns:dc="http://purl.org/dc/elements/1.1/"
   xmlns:cc="http://creativecommons.org/ns#"
   xmlns:rdf="http://www.w3.org/1999/02/22-rdf-syntax-ns#"
   xmlns:svg="http://www.w3.org/2000/svg"
   xmlns="http://www.w3.org/2000/svg"
   xmlns:sodipodi="http://sodipodi.sourceforge.net/DTD/sodipodi-0.dtd"
   xmlns:inkscape="http://www.inkscape.org/namespaces/inkscape"
   id="svg2985"
   version="1.1"
   inkscape:version="0.48.0 r9654"
   width="744.09448"
   height="1052.3622"
   xml:space="preserve"
   sodipodi:docname="vimlogo.svg"><metadata
     id="metadata2991"><rdf:RDF><cc:Work
         rdf:about=""><dc:format>image/svg+xml</dc:format><dc:type
           rdf:resource="http://purl.org/dc/dcmitype/StillImage" /><dc:title></dc:title></cc:Work></rdf:RDF></metadata><defs
     id="defs2989" /><sodipodi:namedview
     pagecolor="#ffffff"
     bordercolor="#666666"
     borderopacity="1"
     objecttolerance="10"
     gridtolerance="10"
     guidetolerance="10"
     inkscape:pageopacity="0"
     inkscape:pageshadow="2"
     inkscape:window-width="993"
     inkscape:window-height="682"
     id="namedview2987"
     showgrid="false"
     showborder="true"
     inkscape:showpageshadow="false"
     inkscape:zoom="0.2969697"
     inkscape:cx="382.5"
     inkscape:cy="495"
     inkscape:window-x="0"
     inkscape:window-y="0"
     inkscape:window-maximized="0"
     inkscape:current-layer="g2993" /><g
     id="g2993"
     inkscape:groupmode="layer"
     inkscape:label="vimlogo"
     transform="matrix(1.25,0,0,-1.25,0,1052.3622)"><g
       id="g2995"
       transform="matrix(0.1,0,0,0.1,5.3877551,266.54694)"><g
         id="g2997"><path
           d="M 4284.72,2164.32 2867.04,3553.2 1478.16,2136.24 2867.04,746.64 4284.72,2164.32"
           style="fill:#000000;fill-opacity:1;fill-rule:evenodd;stroke:#000000;stroke-opacity:1;stroke-width:2.16;stroke-miterlimit:2.61;stroke-dasharray:none"
           id="path2999"
           inkscape:connector-curvature="0" /><path
           d="m 4142.88,2164.32 84.96,0 -1360.8,-1360.8 0,84.96 1275.84,1275.84"
           style="fill:#006b05;fill-opacity:1;fill-rule:evenodd;stroke:#000000;stroke-opacity:1;stroke-width:2.16;stroke-miterlimit:2.61;stroke-dasharray:none"
           id="path3003"
           inkscape:connector-curvature="0" /><path
           d="m 1535.04,2136.24 84.96,0 1247.04,-1247.76 0,-84.96 -1332,1332.72"
           style="fill:#007d17;fill-opacity:1;fill-rule:evenodd;stroke:#000000;stroke-opacity:1;stroke-width:2.16;stroke-miterlimit:2.61;stroke-dasharray:none"
           id="path3007"
           inkscape:connector-curvature="0" /><path
           d="m 2867.04,3412.08 0,84.24 -1332,-1360.08 84.96,0 1247.04,1275.84"
           style="fill:#66ff99;fill-opacity:1;fill-rule:evenodd;stroke:#000000;stroke-opacity:1;stroke-width:2.16;stroke-miterlimit:2.61;stroke-dasharray:none"
           id="path3011"
           inkscape:connector-curvature="0" /><path
           d="m 2867.04,3496.32 0,-84.24 1275.84,-1247.76 84.96,0 -1360.8,1332"
           style="fill:#45ff02;fill-opacity:1;fill-rule:evenodd;stroke:#000000;stroke-opacity:1;stroke-width:2.16;stroke-miterlimit:2.61;stroke-dasharray:none"
           id="path3015"
           inkscape:connector-curvature="0" /><path
           d="M 2867.04,888.48 4142.88,2164.32 2867.04,3412.08 1620,2136.24 2867.04,888.48"
           style="fill:#009933;fill-opacity:1;fill-rule:evenodd;stroke:#000000;stroke-opacity:1;stroke-width:2.16;stroke-miterlimit:2.61;stroke-dasharray:none"
           id="path3019"
           inkscape:connector-curvature="0" /><path
           d="m 3132,3128.4 84.96,-85.68 0,0 -586.08,-594.72 0,594.72 56.88,0 84.96,85.68 0,226.08 -84.96,85.68 -944.64,0 -84.96,-85.68 0,-226.08 84.96,-85.68 66.24,0 0,-1927.44 103.68,-84.96 293.04,0 2031.12,2098.08 0,226.08 -84.96,85.68 -925.92,0 -94.32,-85.68 0,-226.08"
           style="fill:#000000;fill-opacity:1;fill-rule:evenodd;stroke:#000000;stroke-opacity:1;stroke-width:2.16;stroke-miterlimit:2.61;stroke-dasharray:none"
           id="path3023"
           inkscape:connector-curvature="0" /><path
           d="m 1771.2,3099.6 -56.88,56.88 0,169.92 56.88,56.88 888.48,0.72 56.16,-57.6 -56.16,-27.36 -28.8,27.36 -859.68,-141.12 0,-85.68"
           style="fill:#ffffff;fill-opacity:1;fill-rule:evenodd;stroke:#000000;stroke-opacity:1;stroke-width:2.16;stroke-miterlimit:2.61;stroke-dasharray:none"
           id="path3027"
           inkscape:connector-curvature="0" /><path
           d="m 1941.12,1087.2 -66.24,56.88 0,1956.24 66.24,56.16 0,-2069.28"
           style="fill:#ffffff;fill-opacity:1;fill-rule:evenodd;stroke:#000000;stroke-opacity:1;stroke-width:2.16;stroke-miterlimit:2.61;stroke-dasharray:none"
           id="path3031"
           inkscape:connector-curvature="0" /><path
           d="m 3358.8,3099.6 56.88,56.88 0,-113.76 -945.36,-963.36 104.4,226.8 784.08,793.44"
           style="fill:#ffffff;fill-opacity:1;fill-rule:evenodd;stroke:#000000;stroke-opacity:1;stroke-width:2.16;stroke-miterlimit:2.61;stroke-dasharray:none"
           id="path3035"
           inkscape:connector-curvature="0" /><path
           d="m 1960.56,3184.56 -19.44,-28.08 -66.24,-56.88 -103.68,0 0,113.76 189.36,-28.8"
           style="fill:#7f7f7f;fill-opacity:1;fill-rule:evenodd;stroke:#000000;stroke-opacity:1;stroke-width:2.16;stroke-miterlimit:2.61;stroke-dasharray:none"
           id="path3039"
           inkscape:connector-curvature="0" /><path
           d="m 2574.72,3099.6 0,-793.44 -104.4,-226.08 0,1077.12 160.56,0 28.8,28.08 -28.8,141.12 84.96,0 0,-169.92 -56.16,-56.88 -84.96,0"
           style="fill:#7f7f7f;fill-opacity:1;fill-rule:evenodd;stroke:#000000;stroke-opacity:1;stroke-width:2.16;stroke-miterlimit:2.61;stroke-dasharray:none"
           id="path3043"
           inkscape:connector-curvature="0" /><path
           d="m 3245.04,3099.6 -56.16,56.88 0,169.92 65.52,56.88 860.4,0 66.24,-56.88 -95.04,-84.96 -840.96,-56.16 0,-85.68"
           style="fill:#ffffff;fill-opacity:1;fill-rule:evenodd;stroke:#000000;stroke-opacity:1;stroke-width:2.16;stroke-miterlimit:2.61;stroke-dasharray:none"
           id="path3047"
           inkscape:connector-curvature="0" /><path
           d="m 4181.04,3156.48 -1994.4,-2069.28 -245.52,0 0,84.96 180,0 1993.68,2041.2 -28.8,113.04 95.04,0 0,-169.92"
           style="fill:#7f7f7f;fill-opacity:1;fill-rule:evenodd;stroke:#000000;stroke-opacity:1;stroke-width:2.16;stroke-miterlimit:2.61;stroke-dasharray:none"
           id="path3051"
           inkscape:connector-curvature="0" /><path
           d="m 3434.4,3184.56 -19.44,-28.08 -56.16,-56.88 -113.76,0 0,113.76 189.36,-28.8"
           style="fill:#7f7f7f;fill-opacity:1;fill-rule:evenodd;stroke:#000000;stroke-opacity:1;stroke-width:2.16;stroke-miterlimit:2.61;stroke-dasharray:none"
           id="path3055"
           inkscape:connector-curvature="0" /><path
           d="m 2470.32,2080.08 0,1077.12 160.56,0 28.8,28.08 0,113.76 -28.8,28.08 -831.6,0 -28.08,-28.08 0,-113.76 28.08,-28.08 141.84,0 0,-1985.04 36.72,-28.08 162,0 1984.32,2069.28 0,81.36 -28.8,32.4 -821.52,0 -28.8,-28.08 0,-114.48 28.8,-28.08 141.84,0 0,-113.76 -945.36,-962.64"
           style="fill:#cccccc;fill-opacity:1;fill-rule:evenodd;stroke:#000000;stroke-opacity:1;stroke-width:2.16;stroke-miterlimit:2.61;stroke-dasharray:none"
           id="path3059"
           inkscape:connector-curvature="0" /><path
           d="m 2985.84,2078.64 66.24,56.88 169.92,0 47.52,-56.88 -56.88,-169.92 -65.52,-56.88 -169.92,0 -48.24,56.88 56.88,169.92"
           style="fill:#000000;fill-opacity:1;fill-rule:evenodd;stroke:#000000;stroke-opacity:1;stroke-width:2.16;stroke-miterlimit:2.61;stroke-dasharray:none"
           id="path3063"
           inkscape:connector-curvature="0" /><path
           d="m 3042.72,1143.36 170.64,509.76 -56.88,0 56.88,170.64 254.16,0 56.88,-56.88 38.16,0 56.16,56.88 189.36,0 56.88,-56.88 37.44,0 56.88,56.88 207.36,0 75.6,-113.76 -123.84,-403.2 56.16,0 -54.72,-163.44 -340.56,0 133.2,396.72 -84.96,0 -78.48,-231.84 56.16,0 -53.28,-164.88 -340.56,0 132.48,396.72 -84.96,0 -79.2,-233.28 56.88,0 -53.28,-163.44 -340.56,0"
           style="fill:#000000;fill-opacity:1;fill-rule:evenodd;stroke:#000000;stroke-opacity:1;stroke-width:2.16;stroke-miterlimit:2.61;stroke-dasharray:none"
           id="path3067"
           inkscape:connector-curvature="0" /><path
           d="m 4140.72,1766.88 43.92,-62.64 -139.68,-447.84 56.16,0 -18.72,-56.16 -226.8,0 132.48,396.72 -198.72,0 -113.04,-340.56 56.16,0 -18.72,-56.16 -226.8,0 132.48,396.72 -198.72,0 -113.04,-340.56 56.88,0 -19.44,-56.16 -226.8,0 170.64,509.76 -56.88,0 18.72,56.88 208.08,0 56.88,-56.88 56.16,0 56.88,56.88 169.92,0 56.88,-56.88 56.88,0 56.88,56.88 171.36,0"
           style="fill:#cccccc;fill-opacity:1;fill-rule:evenodd;stroke:#000000;stroke-opacity:1;stroke-width:2.16;stroke-miterlimit:2.61;stroke-dasharray:none"
           id="path3071"
           inkscape:connector-curvature="0" /><path
           d="m 3184.56,1823.76 -173.52,-516.24 59.04,0 -56.16,-164.16 -339.84,0 169.92,509.76 -56.88,0 397.44,170.64 z m -397.44,-170.64 56.88,170.64 340.56,0"
           style="fill:#000000;fill-opacity:1;fill-rule:evenodd;stroke:#000000;stroke-opacity:1;stroke-width:2.16;stroke-miterlimit:2.61;stroke-dasharray:none"
           id="path3075"
           inkscape:connector-curvature="0" /><path
           d="m 2976.48,1200.24 18.72,56.16 -56.88,0 170.64,510.48 -236.16,0 -19.44,-56.88 66.24,0 -169.92,-509.76 226.8,0"
           style="fill:#cccccc;fill-opacity:1;fill-rule:evenodd;stroke:#000000;stroke-opacity:1;stroke-width:2.16;stroke-miterlimit:2.61;stroke-dasharray:none"
           id="path3079"
           inkscape:connector-curvature="0" /><path
           d="m 3165.12,1936.8 38.16,113.76 -18.72,28.08 -113.76,0 -37.44,-28.08 -38.16,-113.76 19.44,-28.08 113.76,0 36.72,28.08"
           style="fill:#cccccc;fill-opacity:1;fill-rule:evenodd;stroke:#000000;stroke-opacity:1;stroke-width:2.16;stroke-miterlimit:2.61;stroke-dasharray:none"
           id="path3083"
           inkscape:connector-curvature="0" /></g></g></g></svg>
