<?xml version="1.0" encoding="UTF-8" standalone="no"?>
<!-- Created with Inkscape (http://www.inkscape.org/) -->

<svg
   xmlns:dc="http://purl.org/dc/elements/1.1/"
   xmlns:cc="http://creativecommons.org/ns#"
   xmlns:rdf="http://www.w3.org/1999/02/22-rdf-syntax-ns#"
   xmlns:svg="http://www.w3.org/2000/svg"
   xmlns="http://www.w3.org/2000/svg"
   xmlns:sodipodi="http://sodipodi.sourceforge.net/DTD/sodipodi-0.dtd"
   xmlns:inkscape="http://www.inkscape.org/namespaces/inkscape"
   id="svg2985"
   version="1.1"
   inkscape:version="0.47 r22583"
   width="744.09448"
   height="1052.3622"
   xml:space="preserve"
   sodipodi:docname="vimlogo.svg"><metadata
     id="metadata2991"><rdf:RDF><cc:Work
         rdf:about=""><dc:format>image/svg+xml</dc:format><dc:type
           rdf:resource="http://purl.org/dc/dcmitype/StillImage" /><dc:title /></cc:Work></rdf:RDF></metadata><defs
     id="defs2989" /><sodipodi:namedview
     pagecolor="#ffffff"
     bordercolor="#666666"
     borderopacity="1"
     objecttolerance="10"
     gridtolerance="10"
     guidetolerance="10"
     inkscape:pageopacity="0"
     inkscape:pageshadow="2"
     inkscape:window-width="993"
     inkscape:window-height="682"
     id="namedview2987"
     showgrid="false"
     showborder="true"
     inkscape:showpageshadow="false"
     inkscape:zoom="0.2969697"
     inkscape:cx="473.84668"
     inkscape:cy="458.20091"
     inkscape:window-x="0"
     inkscape:window-y="27"
     inkscape:window-maximized="0"
     inkscape:current-layer="g2993" /><g
     id="g2993"
     inkscape:groupmode="layer"
     inkscape:label="vimlogo"><g
       id="g2880"><path
         inkscape:connector-curvature="0"
         id="path2999"
         style="fill:#000000;fill-opacity:1;fill-rule:evenodd;stroke:#000000;stroke-width:0.36930451;stroke-miterlimit:2.6099999;stroke-opacity:1;stroke-dasharray:none"
         d="M 611.97206,523.719 369.58522,286.2563 132.12243,528.52 369.58522,766.1059 611.97206,523.719" /><path
         inkscape:connector-curvature="0"
         id="path3003"
         style="fill:#006b05;fill-opacity:1;fill-rule:evenodd;stroke:#000000;stroke-width:0.36930451;stroke-miterlimit:2.6099999;stroke-opacity:1;stroke-dasharray:none"
         d="m 587.72107,523.719 14.52597,0 -232.66182,232.6619 0,-14.526 218.13585,-218.1359" /><path
         inkscape:connector-curvature="0"
         id="path3007"
         style="fill:#007d17;fill-opacity:1;fill-rule:evenodd;stroke:#000000;stroke-width:0.36930451;stroke-miterlimit:2.6099999;stroke-opacity:1;stroke-dasharray:none"
         d="m 141.84744,528.52 14.52598,0 213.2118,213.3349 0,14.526 L 141.84744,528.52" /><path
         inkscape:connector-curvature="0"
         id="path3011"
         style="fill:#66ff99;fill-opacity:1;fill-rule:evenodd;stroke:#000000;stroke-width:0.36930451;stroke-miterlimit:2.6099999;stroke-opacity:1;stroke-dasharray:none"
         d="m 369.58522,310.3842 0,-14.4029 -227.73778,232.5387 14.52598,0 213.2118,-218.1358" /><path
         inkscape:connector-curvature="0"
         id="path3015"
         style="fill:#45ff02;fill-opacity:1;fill-rule:evenodd;stroke:#000000;stroke-width:0.36930451;stroke-miterlimit:2.6099999;stroke-opacity:1;stroke-dasharray:none"
         d="m 369.58522,295.9813 0,14.4029 218.13585,213.3348 14.52597,0 -232.66182,-227.7377" /><path
         inkscape:connector-curvature="0"
         id="path3019"
         style="fill:#009933;fill-opacity:1;fill-rule:evenodd;stroke:#000000;stroke-width:0.36930451;stroke-miterlimit:2.6099999;stroke-opacity:1;stroke-dasharray:none"
         d="M 369.58522,741.8549 587.72107,523.719 369.58522,310.3842 156.37342,528.52 369.58522,741.8549" /><path
         inkscape:connector-curvature="0"
         id="path3023"
         style="fill:#000000;fill-opacity:1;fill-rule:evenodd;stroke:#000000;stroke-width:0.36930451;stroke-miterlimit:2.6099999;stroke-opacity:1;stroke-dasharray:none"
         d="m 414.88657,358.8861 14.52597,14.6491 0,0 -100.20461,101.6819 0,-101.6819 9.72501,0 14.52598,-14.6491 0,-38.6538 -14.52598,-14.6491 -161.50916,0 -14.52598,14.6491 0,38.6538 14.52598,14.6491 11.32534,0 0,329.5427 17.72661,14.526 50.10231,0 347.26932,-358.7178 0,-38.6538 -14.52597,-14.6491 -158.30853,0 -16.12629,14.6491 0,38.6538" /><path
         inkscape:connector-curvature="0"
         id="path3027"
         style="fill:#ffffff;fill-opacity:1;fill-rule:evenodd;stroke:#000000;stroke-width:0.36930451;stroke-miterlimit:2.6099999;stroke-opacity:1;stroke-dasharray:none"
         d="m 182.22474,363.8102 -9.72502,-9.725 0,-29.052 9.72502,-9.725 151.90725,-0.1231 9.60191,9.8481 -9.60191,4.6779 -4.92406,-4.6779 -146.98319,24.1279 0,14.6491" /><path
         inkscape:connector-curvature="0"
         id="path3031"
         style="fill:#ffffff;fill-opacity:1;fill-rule:evenodd;stroke:#000000;stroke-width:0.36930451;stroke-miterlimit:2.6099999;stroke-opacity:1;stroke-dasharray:none"
         d="m 211.27669,707.8789 -11.32533,-9.725 0,-334.4668 11.32533,-9.6019 0,353.7937" /><path
         inkscape:connector-curvature="0"
         id="path3035"
         style="fill:#ffffff;fill-opacity:1;fill-rule:evenodd;stroke:#000000;stroke-width:0.36930451;stroke-miterlimit:2.6099999;stroke-opacity:1;stroke-dasharray:none"
         d="m 453.66354,363.8102 9.72502,-9.725 0,19.45 -161.63227,164.7098 17.84972,-38.7769 134.05753,-135.6579" /><path
         inkscape:connector-curvature="0"
         id="path3039"
         style="fill:#7f7f7f;fill-opacity:1;fill-rule:evenodd;stroke:#000000;stroke-width:0.36930451;stroke-miterlimit:2.6099999;stroke-opacity:1;stroke-dasharray:none"
         d="m 214.60043,349.2842 -3.32374,4.801 -11.32533,9.725 -17.72662,0 0,-19.45 32.37569,4.924" /><path
         inkscape:connector-curvature="0"
         id="path3043"
         style="fill:#7f7f7f;fill-opacity:1;fill-rule:evenodd;stroke:#000000;stroke-width:0.36930451;stroke-miterlimit:2.6099999;stroke-opacity:1;stroke-dasharray:none"
         d="m 319.60601,363.8102 0,135.6579 -17.84972,38.6538 0,-184.1598 27.45164,0 4.92406,-4.801 -4.92406,-24.1279 14.52597,0 0,29.052 -9.60191,9.725 -14.52598,0" /><path
         inkscape:connector-curvature="0"
         id="path3047"
         style="fill:#ffffff;fill-opacity:1;fill-rule:evenodd;stroke:#000000;stroke-width:0.36930451;stroke-miterlimit:2.6099999;stroke-opacity:1;stroke-dasharray:none"
         d="m 434.2135,363.8102 -9.60191,-9.725 0,-29.052 11.20223,-9.725 147.10629,0 11.32534,9.725 -16.2494,14.526 -143.78255,9.6019 0,14.6491" /><path
         inkscape:connector-curvature="0"
         id="path3051"
         style="fill:#7f7f7f;fill-opacity:1;fill-rule:evenodd;stroke:#000000;stroke-width:0.36930451;stroke-miterlimit:2.6099999;stroke-opacity:1;stroke-dasharray:none"
         d="m 594.24545,354.0852 -340.99115,353.7937 -41.97761,0 0,-14.526 30.77538,0 340.86804,-348.9927 -4.92406,-19.327 16.2494,0 0,29.052" /><path
         inkscape:connector-curvature="0"
         id="path3055"
         style="fill:#7f7f7f;fill-opacity:1;fill-rule:evenodd;stroke:#000000;stroke-width:0.36930451;stroke-miterlimit:2.6099999;stroke-opacity:1;stroke-dasharray:none"
         d="m 466.5892,349.2842 -3.32374,4.801 -9.60192,9.725 -19.45004,0 0,-19.45 32.3757,4.924" /><path
         inkscape:connector-curvature="0"
         id="path3059"
         style="fill:#cccccc;fill-opacity:1;fill-rule:evenodd;stroke:#000000;stroke-width:0.36930451;stroke-miterlimit:2.6099999;stroke-opacity:1;stroke-dasharray:none"
         d="m 301.75629,538.1219 0,-184.1598 27.45164,0 4.92406,-4.801 0,-19.45 -4.92406,-4.801 -142.18223,0 -4.80096,4.801 0,19.45 4.80096,4.801 24.25099,0 0,339.3908 6.27818,4.801 27.69784,0 339.26772,-353.7937 0,-13.9105 -4.92406,-5.5396 -140.45881,0 -4.92406,4.801 0,19.5731 4.92406,4.801 24.251,0 0,19.45 -161.63227,164.5867" /><path
         inkscape:connector-curvature="0"
         id="path3063"
         style="fill:#000000;fill-opacity:1;fill-rule:evenodd;stroke:#000000;stroke-width:0.36930451;stroke-miterlimit:2.6099999;stroke-opacity:1;stroke-dasharray:none"
         d="m 389.89696,538.3681 11.32534,-9.725 29.05195,0 8.1247,9.725 -9.72501,29.052 -11.20224,9.725 -29.05195,0 -8.2478,-9.725 9.72501,-29.052" /><path
         inkscape:connector-curvature="0"
         id="path3067"
         style="fill:#000000;fill-opacity:1;fill-rule:evenodd;stroke:#000000;stroke-width:0.36930451;stroke-miterlimit:2.6099999;stroke-opacity:1;stroke-dasharray:none"
         d="m 399.62198,698.277 29.17506,-87.1559 -9.72502,0 9.72502,-29.175 43.45482,0 9.72502,9.725 6.52438,0 9.60192,-9.725 32.37569,0 9.72502,9.725 6.40128,0 9.72502,-9.725 35.45323,0 12.92565,19.45 -21.17345,68.9368 9.60191,0 -9.35571,27.9441 -58.22701,0 22.77378,-67.829 -14.52598,0 -13.41806,39.6387 9.60192,0 -9.10951,28.1903 -58.22701,0 22.65067,-67.829 -14.52597,0 -13.54117,39.8849 9.72502,0 -9.10951,27.9441 -58.22701,0" /><path
         inkscape:connector-curvature="0"
         id="path3071"
         style="fill:#cccccc;fill-opacity:1;fill-rule:evenodd;stroke:#000000;stroke-width:0.36930451;stroke-miterlimit:2.6099999;stroke-opacity:1;stroke-dasharray:none"
         d="m 587.35176,591.6711 7.50919,10.7098 -23.88169,76.5691 9.60192,0 -3.20064,9.602 -38.77697,0 22.65068,-67.829 -33.97602,0 -19.32693,58.227 9.60192,0 -3.20064,9.602 -38.77697,0 22.65067,-67.829 -33.97601,0 -19.32694,58.227 9.72502,0 -3.32374,9.602 -38.77697,0 29.17505,-87.1559 -9.72501,0 3.20063,-9.725 35.57634,0 9.72501,9.725 9.60192,0 9.72502,-9.725 29.05195,0 9.72502,9.725 9.72502,0 9.72502,-9.725 29.29815,0" /><path
         inkscape:connector-curvature="0"
         id="path3075"
         style="fill:#000000;fill-opacity:1;fill-rule:evenodd;stroke:#000000;stroke-width:0.36930451;stroke-miterlimit:2.6099999;stroke-opacity:1;stroke-dasharray:none"
         d="m 423.87298,581.9461 -29.66746,88.2637 10.09432,0 -9.60192,28.0672 -58.1039,0 29.05195,-87.1559 -9.72502,0 67.95203,-29.175 z m -67.95203,29.175 9.72502,-29.175 58.22701,0" /><path
         inkscape:connector-curvature="0"
         id="path3079"
         style="fill:#cccccc;fill-opacity:1;fill-rule:evenodd;stroke:#000000;stroke-width:0.36930451;stroke-miterlimit:2.6099999;stroke-opacity:1;stroke-dasharray:none"
         d="m 388.29664,688.552 3.20064,-9.602 -9.72501,0 29.17505,-87.2789 -40.37729,0 -3.32374,9.725 11.32534,0 -29.05196,87.1559 38.77697,0" /><path
         inkscape:connector-curvature="0"
         id="path3083"
         style="fill:#cccccc;fill-opacity:1;fill-rule:evenodd;stroke:#000000;stroke-width:0.36930451;stroke-miterlimit:2.6099999;stroke-opacity:1;stroke-dasharray:none"
         d="m 420.54924,562.6191 6.52438,-19.45 -3.20064,-4.801 -19.45004,0 -6.40128,4.801 -6.52438,19.45 3.32374,4.801 19.45004,0 6.27818,-4.801" /></g></g></svg>
