<?xml version="1.0" encoding="UTF-8" standalone="no"?>
<!-- Created with Inkscape (http://www.inkscape.org/) -->

<svg
   xmlns:dc="http://purl.org/dc/elements/1.1/"
   xmlns:cc="http://creativecommons.org/ns#"
   xmlns:rdf="http://www.w3.org/1999/02/22-rdf-syntax-ns#"
   xmlns:svg="http://www.w3.org/2000/svg"
   xmlns="http://www.w3.org/2000/svg"
   xmlns:sodipodi="http://sodipodi.sourceforge.net/DTD/sodipodi-0.dtd"
   xmlns:inkscape="http://www.inkscape.org/namespaces/inkscape"
   id="svg2985"
   version="1.1"
   inkscape:version="0.47 r22583"
   width="744.09448"
   height="1052.3622"
   xml:space="preserve"
   sodipodi:docname="vimlogo.svg"><metadata
     id="metadata2991"><rdf:RDF><cc:Work
         rdf:about=""><dc:format>image/svg+xml</dc:format><dc:type
           rdf:resource="http://purl.org/dc/dcmitype/StillImage" /><dc:title /></cc:Work></rdf:RDF></metadata><defs
     id="defs2989" /><sodipodi:namedview
     pagecolor="#ffffff"
     bordercolor="#666666"
     borderopacity="1"
     objecttolerance="10"
     gridtolerance="10"
     guidetolerance="10"
     inkscape:pageopacity="0"
     inkscape:pageshadow="2"
     inkscape:window-width="993"
     inkscape:window-height="682"
     id="namedview2987"
     showgrid="false"
     showborder="true"
     inkscape:showpageshadow="false"
     inkscape:zoom="0.2969697"
     inkscape:cx="325.78478"
     inkscape:cy="488.26531"
     inkscape:window-x="0"
     inkscape:window-y="27"
     inkscape:window-maximized="0"
     inkscape:current-layer="g2993" /><g
     id="g2993"
     inkscape:groupmode="layer"
     inkscape:label="vimlogo"
     transform="matrix(1.25,0,0,-1.25,0,1052.3622)"><path
       d="M 537.56261,423.40692 295.17577,660.8697 57.712981,418.60596 295.17577,181.02007 537.56261,423.40692"
       style="fill:#000000;fill-opacity:1;fill-rule:evenodd;stroke:#000000;stroke-width:0.36930451;stroke-miterlimit:2.6099999;stroke-opacity:1;stroke-dasharray:none"
       id="path2999"
       inkscape:connector-curvature="0" /><path
       d="m 513.31162,423.40692 14.52597,0 -232.66182,-232.66183 0,14.52598 218.13585,218.13585"
       style="fill:#006b05;fill-opacity:1;fill-rule:evenodd;stroke:#000000;stroke-width:0.36930451;stroke-miterlimit:2.6099999;stroke-opacity:1;stroke-dasharray:none"
       id="path3003"
       inkscape:connector-curvature="0" /><path
       d="m 67.437999,418.60596 14.525977,0 213.211794,-213.33489 0,-14.52598 -227.737771,227.86087"
       style="fill:#007d17;fill-opacity:1;fill-rule:evenodd;stroke:#000000;stroke-width:0.36930451;stroke-miterlimit:2.6099999;stroke-opacity:1;stroke-dasharray:none"
       id="path3007"
       inkscape:connector-curvature="0" /><path
       d="m 295.17577,636.74181 0,14.40287 -227.737771,-232.53872 14.525977,0 213.211794,218.13585"
       style="fill:#66ff99;fill-opacity:1;fill-rule:evenodd;stroke:#000000;stroke-width:0.36930451;stroke-miterlimit:2.6099999;stroke-opacity:1;stroke-dasharray:none"
       id="path3011"
       inkscape:connector-curvature="0" /><path
       d="m 295.17577,651.14468 0,-14.40287 218.13585,-213.33489 14.52597,0 -232.66182,227.73776"
       style="fill:#45ff02;fill-opacity:1;fill-rule:evenodd;stroke:#000000;stroke-width:0.36930451;stroke-miterlimit:2.6099999;stroke-opacity:1;stroke-dasharray:none"
       id="path3015"
       inkscape:connector-curvature="0" /><path
       d="M 295.17577,205.27107 513.31162,423.40692 295.17577,636.74181 81.963976,418.60596 295.17577,205.27107"
       style="fill:#009933;fill-opacity:1;fill-rule:evenodd;stroke:#000000;stroke-width:0.36930451;stroke-miterlimit:2.6099999;stroke-opacity:1;stroke-dasharray:none"
       id="path3019"
       inkscape:connector-curvature="0" /><path
       d="m 340.47712,588.23982 14.52597,-14.64908 0,0 -100.20461,-101.68183 0,101.68183 9.72501,0 14.52598,14.64908 0,38.65387 -14.52598,14.64908 -161.50916,0 -14.525975,-14.64908 0,-38.65387 14.525975,-14.64908 11.32534,0 0,-329.5427 17.72661,-14.52598 50.10231,0 347.26932,358.71776 0,38.65387 -14.52597,14.64908 -158.30853,0 -16.12629,-14.64908 0,-38.65387"
       style="fill:#000000;fill-opacity:1;fill-rule:evenodd;stroke:#000000;stroke-width:0.36930451;stroke-miterlimit:2.6099999;stroke-opacity:1;stroke-dasharray:none"
       id="path3023"
       inkscape:connector-curvature="0" /><path
       d="m 107.81529,583.31576 -9.725018,9.72502 0,29.05195 9.725018,9.72502 151.90725,0.1231 9.60191,-9.84812 -9.60191,-4.67786 -4.92406,4.67786 -146.98319,-24.12789 0,-14.64908"
       style="fill:#ffffff;fill-opacity:1;fill-rule:evenodd;stroke:#000000;stroke-width:0.36930451;stroke-miterlimit:2.6099999;stroke-opacity:1;stroke-dasharray:none"
       id="path3027"
       inkscape:connector-curvature="0" /><path
       d="m 136.86724,239.24708 -11.32533,9.72502 0,334.46676 11.32533,9.60192 0,-353.7937"
       style="fill:#ffffff;fill-opacity:1;fill-rule:evenodd;stroke:#000000;stroke-width:0.36930451;stroke-miterlimit:2.6099999;stroke-opacity:1;stroke-dasharray:none"
       id="path3031"
       inkscape:connector-curvature="0" /><path
       d="m 379.25409,583.31576 9.72502,9.72502 0,-19.45004 -161.63227,-164.7098 17.84972,38.77697 134.05753,135.65785"
       style="fill:#ffffff;fill-opacity:1;fill-rule:evenodd;stroke:#000000;stroke-width:0.36930451;stroke-miterlimit:2.6099999;stroke-opacity:1;stroke-dasharray:none"
       id="path3035"
       inkscape:connector-curvature="0" /><path
       d="m 140.19098,597.84174 -3.32374,-4.80096 -11.32533,-9.72502 -17.72662,0 0,19.45004 32.37569,-4.92406"
       style="fill:#7f7f7f;fill-opacity:1;fill-rule:evenodd;stroke:#000000;stroke-width:0.36930451;stroke-miterlimit:2.6099999;stroke-opacity:1;stroke-dasharray:none"
       id="path3039"
       inkscape:connector-curvature="0" /><path
       d="m 245.19656,583.31576 0,-135.65785 -17.84972,-38.65387 0,184.15984 27.45164,0 4.92406,4.80096 -4.92406,24.12789 14.52597,0 0,-29.05195 -9.60191,-9.72502 -14.52598,0"
       style="fill:#7f7f7f;fill-opacity:1;fill-rule:evenodd;stroke:#000000;stroke-width:0.36930451;stroke-miterlimit:2.6099999;stroke-opacity:1;stroke-dasharray:none"
       id="path3043"
       inkscape:connector-curvature="0" /><path
       d="m 359.80405,583.31576 -9.60191,9.72502 0,29.05195 11.20223,9.72502 147.10629,0 11.32534,-9.72502 -16.2494,-14.52598 -143.78255,-9.60191 0,-14.64908"
       style="fill:#ffffff;fill-opacity:1;fill-rule:evenodd;stroke:#000000;stroke-width:0.36930451;stroke-miterlimit:2.6099999;stroke-opacity:1;stroke-dasharray:none"
       id="path3047"
       inkscape:connector-curvature="0" /><path
       d="m 519.836,593.04078 -340.99115,-353.7937 -41.97761,0 0,14.52598 30.77538,0 340.86804,348.99274 -4.92406,19.32693 16.2494,0 0,-29.05195"
       style="fill:#7f7f7f;fill-opacity:1;fill-rule:evenodd;stroke:#000000;stroke-width:0.36930451;stroke-miterlimit:2.6099999;stroke-opacity:1;stroke-dasharray:none"
       id="path3051"
       inkscape:connector-curvature="0" /><path
       d="m 392.17975,597.84174 -3.32374,-4.80096 -9.60192,-9.72502 -19.45004,0 0,19.45004 32.3757,-4.92406"
       style="fill:#7f7f7f;fill-opacity:1;fill-rule:evenodd;stroke:#000000;stroke-width:0.36930451;stroke-miterlimit:2.6099999;stroke-opacity:1;stroke-dasharray:none"
       id="path3055"
       inkscape:connector-curvature="0" /><path
       d="m 227.34684,409.00404 0,184.15984 27.45164,0 4.92406,4.80096 0,19.45003 -4.92406,4.80096 -142.18223,0 -4.80096,-4.80096 0,-19.45003 4.80096,-4.80096 24.25099,0 0,-339.39082 6.27818,-4.80096 27.69784,0 339.26772,353.7937 0,13.91047 -4.92406,5.53956 -140.45881,0 -4.92406,-4.80096 0,-19.57313 4.92406,-4.80096 24.251,0 0,-19.45004 -161.63227,-164.5867"
       style="fill:#cccccc;fill-opacity:1;fill-rule:evenodd;stroke:#000000;stroke-width:0.36930451;stroke-miterlimit:2.6099999;stroke-opacity:1;stroke-dasharray:none"
       id="path3059"
       inkscape:connector-curvature="0" /><path
       d="m 315.48751,408.75784 11.32534,9.72502 29.05195,0 8.1247,-9.72502 -9.72501,-29.05195 -11.20224,-9.72502 -29.05195,0 -8.2478,9.72502 9.72501,29.05195"
       style="fill:#000000;fill-opacity:1;fill-rule:evenodd;stroke:#000000;stroke-width:0.36930451;stroke-miterlimit:2.6099999;stroke-opacity:1;stroke-dasharray:none"
       id="path3063"
       inkscape:connector-curvature="0" /><path
       d="m 325.21253,248.849 29.17506,87.15585 -9.72502,0 9.72502,29.17506 43.45482,0 9.72502,-9.72502 6.52438,0 9.60192,9.72502 32.37569,0 9.72502,-9.72502 6.40128,0 9.72502,9.72502 35.45323,0 12.92565,-19.45004 -21.17345,-68.93683 9.60191,0 -9.35571,-27.94404 -58.22701,0 22.77378,67.82892 -14.52598,0 -13.41806,-39.63868 9.60192,0 -9.10951,-28.19024 -58.22701,0 22.65067,67.82892 -14.52597,0 -13.54117,-39.88488 9.72502,0 -9.10951,-27.94404 -58.22701,0"
       style="fill:#000000;fill-opacity:1;fill-rule:evenodd;stroke:#000000;stroke-width:0.36930451;stroke-miterlimit:2.6099999;stroke-opacity:1;stroke-dasharray:none"
       id="path3067"
       inkscape:connector-curvature="0" /><path
       d="m 512.94231,355.45489 7.50919,-10.70983 -23.88169,-76.56913 9.60192,0 -3.20064,-9.60192 -38.77697,0 22.65068,67.82893 -33.97602,0 -19.32693,-58.22701 9.60192,0 -3.20064,-9.60192 -38.77697,0 22.65067,67.82893 -33.97601,0 -19.32694,-58.22701 9.72502,0 -3.32374,-9.60192 -38.77697,0 29.17505,87.15586 -9.72501,0 3.20063,9.72502 35.57634,0 9.72501,-9.72502 9.60192,0 9.72502,9.72502 29.05195,0 9.72502,-9.72502 9.72502,0 9.72502,9.72502 29.29815,0"
       style="fill:#cccccc;fill-opacity:1;fill-rule:evenodd;stroke:#000000;stroke-width:0.36930451;stroke-miterlimit:2.6099999;stroke-opacity:1;stroke-dasharray:none"
       id="path3071"
       inkscape:connector-curvature="0" /><path
       d="m 349.46353,365.17991 -29.66746,-88.26377 10.09432,0 -9.60192,-28.06714 -58.1039,0 29.05195,87.15585 -9.72502,0 67.95203,29.17506 z m -67.95203,-29.17506 9.72502,29.17506 58.22701,0"
       style="fill:#000000;fill-opacity:1;fill-rule:evenodd;stroke:#000000;stroke-width:0.36930451;stroke-miterlimit:2.6099999;stroke-opacity:1;stroke-dasharray:none"
       id="path3075"
       inkscape:connector-curvature="0" /><path
       d="m 313.88719,258.57401 3.20064,9.60192 -9.72501,0 29.17505,87.27896 -40.37729,0 -3.32374,-9.72502 11.32534,0 -29.05196,-87.15586 38.77697,0"
       style="fill:#cccccc;fill-opacity:1;fill-rule:evenodd;stroke:#000000;stroke-width:0.36930451;stroke-miterlimit:2.6099999;stroke-opacity:1;stroke-dasharray:none"
       id="path3079"
       inkscape:connector-curvature="0" /><path
       d="m 346.13979,384.50684 6.52438,19.45004 -3.20064,4.80096 -19.45004,0 -6.40128,-4.80096 -6.52438,-19.45004 3.32374,-4.80095 19.45004,0 6.27818,4.80095"
       style="fill:#cccccc;fill-opacity:1;fill-rule:evenodd;stroke:#000000;stroke-width:0.36930451;stroke-miterlimit:2.6099999;stroke-opacity:1;stroke-dasharray:none"
       id="path3083"
       inkscape:connector-curvature="0" /></g></svg>
