<?xml version="1.0" encoding="UTF-8" standalone="no"?>
<!-- Created with Inkscape (http://www.inkscape.org/) -->

<svg
   xmlns:dc="http://purl.org/dc/elements/1.1/"
   xmlns:cc="http://creativecommons.org/ns#"
   xmlns:rdf="http://www.w3.org/1999/02/22-rdf-syntax-ns#"
   xmlns:svg="http://www.w3.org/2000/svg"
   xmlns="http://www.w3.org/2000/svg"
   xmlns:sodipodi="http://sodipodi.sourceforge.net/DTD/sodipodi-0.dtd"
   xmlns:inkscape="http://www.inkscape.org/namespaces/inkscape"
   id="svg2985"
   version="1.1"
   inkscape:version="0.47 r22583"
   width="744.09448"
   height="1052.3622"
   xml:space="preserve"
   sodipodi:docname="vimlogo.svg"><metadata
     id="metadata2991"><rdf:RDF><cc:Work
         rdf:about=""><dc:format>image/svg+xml</dc:format><dc:type
           rdf:resource="http://purl.org/dc/dcmitype/StillImage" /><dc:title /></cc:Work></rdf:RDF></metadata><defs
     id="defs2989" /><sodipodi:namedview
     pagecolor="#ffffff"
     bordercolor="#666666"
     borderopacity="1"
     objecttolerance="10"
     gridtolerance="10"
     guidetolerance="10"
     inkscape:pageopacity="0"
     inkscape:pageshadow="2"
     inkscape:window-width="1280"
     inkscape:window-height="942"
     id="namedview2987"
     showgrid="false"
     showborder="true"
     inkscape:showpageshadow="false"
     inkscape:zoom="0.2969697"
     inkscape:cx="-214.77576"
     inkscape:cy="444.73153"
     inkscape:window-x="0"
     inkscape:window-y="27"
     inkscape:window-maximized="1"
     inkscape:current-layer="g2993" /><g
     id="g2993"
     inkscape:groupmode="layer"
     inkscape:label="vimlogo"><g
       id="g2857"><path
         inkscape:connector-curvature="0"
         id="path2999"
         style="fill:#000000;fill-opacity:1;fill-rule:evenodd;stroke:#000000;stroke-width:0.46163064;stroke-miterlimit:2.6099999;stroke-opacity:1;stroke-dasharray:none"
         d="M 671.95326,523.10347 368.96971,226.2751 72.141223,529.10472 368.96971,826.0871 671.95326,523.10347" /><path
         inkscape:connector-curvature="0"
         id="path3003"
         style="fill:#006b05;fill-opacity:1;fill-rule:evenodd;stroke:#000000;stroke-width:0.46163064;stroke-miterlimit:2.6099999;stroke-opacity:1;stroke-dasharray:none"
         d="m 641.63952,523.10347 18.15747,0 -290.82728,290.82738 0,-18.1575 272.66981,-272.66988" /><path
         inkscape:connector-curvature="0"
         id="path3007"
         style="fill:#007d17;fill-opacity:1;fill-rule:evenodd;stroke:#000000;stroke-width:0.46163064;stroke-miterlimit:2.6099999;stroke-opacity:1;stroke-dasharray:none"
         d="m 84.297485,529.10472 18.157475,0 266.51475,266.66863 0,18.15749 L 84.297485,529.10472" /><path
         inkscape:connector-curvature="0"
         id="path3011"
         style="fill:#66ff99;fill-opacity:1;fill-rule:evenodd;stroke:#000000;stroke-width:0.46163064;stroke-miterlimit:2.6099999;stroke-opacity:1;stroke-dasharray:none"
         d="m 368.96971,256.43497 0,-18.00362 -284.672225,290.67337 18.157475,0 266.51475,-272.66975" /><path
         inkscape:connector-curvature="0"
         id="path3015"
         style="fill:#45ff02;fill-opacity:1;fill-rule:evenodd;stroke:#000000;stroke-width:0.46163064;stroke-miterlimit:2.6099999;stroke-opacity:1;stroke-dasharray:none"
         d="m 368.96971,238.43134 0,18.00363 272.66981,266.6685 18.15747,0 -290.82728,-284.67213" /><path
         inkscape:connector-curvature="0"
         id="path3019"
         style="fill:#009933;fill-opacity:1;fill-rule:evenodd;stroke:#000000;stroke-width:0.46163064;stroke-miterlimit:2.6099999;stroke-opacity:1;stroke-dasharray:none"
         d="M 368.96971,795.77335 641.63952,523.10347 368.96971,256.43497 102.45496,529.10472 368.96971,795.77335" /><path
         inkscape:connector-curvature="0"
         id="path3023"
         style="fill:#000000;fill-opacity:1;fill-rule:evenodd;stroke:#000000;stroke-width:0.46163064;stroke-miterlimit:2.6099999;stroke-opacity:1;stroke-dasharray:none"
         d="m 425.5964,317.06234 18.15746,18.31138 0,0 -125.25576,127.10237 0,-127.10237 12.15626,0 18.15747,-18.31138 0,-48.31725 -18.15747,-18.31137 -201.88645,0 -18.15748,18.31137 0,48.31725 18.15748,18.31138 14.15667,0 0,411.92837 22.15827,18.1575 62.62788,0 434.08665,-448.39725 0,-48.31725 -18.15746,-18.31137 -197.88566,0 -20.15786,18.31137 0,48.31725" /><path
         inkscape:connector-curvature="0"
         id="path3027"
         style="fill:#ffffff;fill-opacity:1;fill-rule:evenodd;stroke:#000000;stroke-width:0.46163064;stroke-miterlimit:2.6099999;stroke-opacity:1;stroke-dasharray:none"
         d="m 134.76911,323.21747 -12.15628,-12.15625 0,-36.315 12.15628,-12.15625 189.88406,-0.15388 12.00239,12.31013 -12.00239,5.84737 -6.15507,-5.84737 -183.72899,30.15987 0,18.31138" /><path
         inkscape:connector-curvature="0"
         id="path3031"
         style="fill:#ffffff;fill-opacity:1;fill-rule:evenodd;stroke:#000000;stroke-width:0.46163064;stroke-miterlimit:2.6099999;stroke-opacity:1;stroke-dasharray:none"
         d="m 171.08405,753.30335 -14.15667,-12.15625 0,-418.0835 14.15667,-12.00238 0,442.24213" /><path
         inkscape:connector-curvature="0"
         id="path3035"
         style="fill:#ffffff;fill-opacity:1;fill-rule:evenodd;stroke:#000000;stroke-width:0.46163064;stroke-miterlimit:2.6099999;stroke-opacity:1;stroke-dasharray:none"
         d="m 474.06761,323.21747 12.15627,-12.15625 0,24.3125 -202.04033,205.88725 22.31215,-48.47112 167.57191,-169.57238" /><path
         inkscape:connector-curvature="0"
         id="path3039"
         style="fill:#7f7f7f;fill-opacity:1;fill-rule:evenodd;stroke:#000000;stroke-width:0.46163064;stroke-miterlimit:2.6099999;stroke-opacity:1;stroke-dasharray:none"
         d="m 175.23872,305.05997 -4.15467,6.00125 -14.15667,12.15625 -22.15827,0 0,-24.3125 40.46961,6.155" /><path
         inkscape:connector-curvature="0"
         id="path3043"
         style="fill:#7f7f7f;fill-opacity:1;fill-rule:evenodd;stroke:#000000;stroke-width:0.46163064;stroke-miterlimit:2.6099999;stroke-opacity:1;stroke-dasharray:none"
         d="m 306.4957,323.21747 0,169.57238 -22.31215,48.31725 0,-230.19975 34.31455,0 6.15507,-6.00125 -6.15507,-30.15988 18.15746,0 0,36.315 -12.00239,12.15625 -18.15747,0" /><path
         inkscape:connector-curvature="0"
         id="path3047"
         style="fill:#ffffff;fill-opacity:1;fill-rule:evenodd;stroke:#000000;stroke-width:0.46163064;stroke-miterlimit:2.6099999;stroke-opacity:1;stroke-dasharray:none"
         d="m 449.75506,323.21747 -12.00239,-12.15625 0,-36.315 14.00279,-12.15625 183.88286,0 14.15668,12.15625 -20.31175,18.1575 -179.72819,12.00237 0,18.31138" /><path
         inkscape:connector-curvature="0"
         id="path3051"
         style="fill:#7f7f7f;fill-opacity:1;fill-rule:evenodd;stroke:#000000;stroke-width:0.46163064;stroke-miterlimit:2.6099999;stroke-opacity:1;stroke-dasharray:none"
         d="m 649.795,311.06122 -426.23894,442.24212 -52.47201,0 0,-18.1575 38.46922,0 426.08505,-436.24087 -6.15507,-24.15875 20.31175,0 0,36.315" /><path
         inkscape:connector-curvature="0"
         id="path3055"
         style="fill:#7f7f7f;fill-opacity:1;fill-rule:evenodd;stroke:#000000;stroke-width:0.46163064;stroke-miterlimit:2.6099999;stroke-opacity:1;stroke-dasharray:none"
         d="m 490.22469,305.05997 -4.15468,6.00125 -12.0024,12.15625 -24.31255,0 0,-24.3125 40.46963,6.155" /><path
         inkscape:connector-curvature="0"
         id="path3059"
         style="fill:#cccccc;fill-opacity:1;fill-rule:evenodd;stroke:#000000;stroke-width:0.46163064;stroke-miterlimit:2.6099999;stroke-opacity:1;stroke-dasharray:none"
         d="m 284.18355,541.10709 0,-230.19975 34.31455,0 6.15507,-6.00125 0,-24.3125 -6.15507,-6.00124 -177.72779,0 -6.0012,6.00124 0,24.3125 6.0012,6.00125 30.31374,0 0,424.2385 7.84772,6.00126 34.6223,0 424.08465,-442.24213 0,-17.38813 -6.15507,-6.92449 -175.57351,0 -6.15508,6.00124 0,24.46638 6.15508,6.00125 30.31374,0 0,24.3125 -202.04033,205.73337" /><path
         inkscape:connector-curvature="0"
         id="path3063"
         style="fill:#000000;fill-opacity:1;fill-rule:evenodd;stroke:#000000;stroke-width:0.46163064;stroke-miterlimit:2.6099999;stroke-opacity:1;stroke-dasharray:none"
         d="m 394.35938,541.41485 14.15668,-12.15625 36.31494,0 10.15587,12.15625 -12.15626,36.315 -14.0028,12.15625 -36.31494,0 -10.30975,-12.15625 12.15626,-36.315" /><path
         inkscape:connector-curvature="0"
         id="path3067"
         style="fill:#000000;fill-opacity:1;fill-rule:evenodd;stroke:#000000;stroke-width:0.46163064;stroke-miterlimit:2.6099999;stroke-opacity:1;stroke-dasharray:none"
         d="m 406.51566,741.30097 36.46882,-108.94487 -12.15627,0 12.15627,-36.46875 54.31853,0 12.15627,12.15625 8.15548,0 12.0024,-12.15625 40.46961,0 12.15628,12.15625 8.0016,0 12.15627,-12.15625 44.31654,0 16.15706,24.3125 -26.46681,86.171 12.00239,0 -11.69464,34.93012 -72.78376,0 28.46722,-84.78625 -18.15747,0 -16.77258,49.54838 12.0024,0 -11.38689,35.23787 -72.78376,0 28.31334,-84.78625 -18.15746,0 -16.92647,49.85613 12.15628,0 -11.38689,34.93012 -72.78376,0" /><path
         inkscape:connector-curvature="0"
         id="path3071"
         style="fill:#cccccc;fill-opacity:1;fill-rule:evenodd;stroke:#000000;stroke-width:0.46163064;stroke-miterlimit:2.6099999;stroke-opacity:1;stroke-dasharray:none"
         d="m 641.17789,608.0436 9.38648,13.38724 -29.85211,95.71138 12.0024,0 -4.0008,12.0025 -48.47121,0 28.31335,-84.78625 -42.47003,0 -24.15866,72.78375 12.0024,0 -4.0008,12.0025 -48.47121,0 28.31333,-84.78625 -42.47001,0 -24.15867,72.78375 12.15627,0 -4.15467,12.0025 -48.47122,0 36.46882,-108.94487 -12.15627,0 4.00079,-12.15625 44.47043,0 12.15626,12.15625 12.0024,0 12.15627,-12.15625 36.31494,0 12.15628,12.15625 12.15627,0 12.15628,-12.15625 36.62268,0" /><path
         inkscape:connector-curvature="0"
         id="path3075"
         style="fill:#000000;fill-opacity:1;fill-rule:evenodd;stroke:#000000;stroke-width:0.46163064;stroke-miterlimit:2.6099999;stroke-opacity:1;stroke-dasharray:none"
         d="m 436.82941,595.88734 -37.08433,110.32963 12.6179,0 -12.0024,35.084 -72.62987,0 36.31494,-108.94488 -12.15628,0 84.94004,-36.46875 z m -84.94004,36.46875 12.15628,-36.46875 72.78376,0" /><path
         inkscape:connector-curvature="0"
         id="path3079"
         style="fill:#cccccc;fill-opacity:1;fill-rule:evenodd;stroke:#000000;stroke-width:0.46163064;stroke-miterlimit:2.6099999;stroke-opacity:1;stroke-dasharray:none"
         d="m 392.35899,729.14472 4.0008,-12.0025 -12.15627,0 36.46882,-109.09862 -50.47162,0 -4.15467,12.15625 14.15667,0 -36.31495,108.94487 48.47122,0" /><path
         inkscape:connector-curvature="0"
         id="path3083"
         style="fill:#cccccc;fill-opacity:1;fill-rule:evenodd;stroke:#000000;stroke-width:0.46163064;stroke-miterlimit:2.6099999;stroke-opacity:1;stroke-dasharray:none"
         d="m 432.67473,571.7286 8.15548,-24.31251 -4.0008,-6.00125 -24.31255,0 -8.0016,6.00125 -8.15548,24.31251 4.15468,6.00125 24.31255,0 7.84772,-6.00125" /></g></g></svg>